<svg width="31" height="32" viewBox="0 0 31 32" fill="none" xmlns="http://www.w3.org/2000/svg">
<path d="M11.625 25.0417V17.2917C11.625 15.8649 10.4684 14.7083 9.04167 14.7083H6.45833C5.0316 14.7083 3.875 15.8649 3.875 17.2917V25.0417C3.875 26.4684 5.0316 27.625 6.45833 27.625H9.04167C10.4684 27.625 11.625 26.4684 11.625 25.0417ZM11.625 25.0417V12.125C11.625 10.6983 12.7816 9.54167 14.2083 9.54167H16.7917C18.2184 9.54167 19.375 10.6983 19.375 12.125V25.0417M11.625 25.0417C11.625 26.4684 12.7816 27.625 14.2083 27.625H16.7917C18.2184 27.625 19.375 26.4684 19.375 25.0417M19.375 25.0417V6.95833C19.375 5.5316 20.5316 4.375 21.9583 4.375H24.5417C25.9684 4.375 27.125 5.5316 27.125 6.95833V25.0417C27.125 26.4684 25.9684 27.625 24.5417 27.625H21.9583C20.5316 27.625 19.375 26.4684 19.375 25.0417Z" stroke="white" stroke-width="2" stroke-linecap="round" stroke-linejoin="round"/>
</svg>
