<svg width="31" height="32" viewBox="0 0 31 32" fill="none" xmlns="http://www.w3.org/2000/svg">
<g clip-path="url(#clip0_487_1486)">
<path d="M0 0.5V11.1562H0.0605469C0.150372 11.0419 0.229599 10.9469 0.364403 10.8811C1.48061 10.3361 1.34815 12.6241 0.306285 11.9604C0.197871 11.8914 0.135456 11.8017 0.0605469 11.7012H0V31.5H31V20.6621H30.9395C30.8615 24.44 26.803 27.8011 23.1289 27.6123C22.0201 27.5554 20.9354 27.345 19.9199 26.8797C19.4388 26.6593 19.0184 26.2974 18.5273 26.1113C17.7914 27.8786 15.4602 28.4995 14.2632 26.7773C13.7933 26.1012 13.7496 25.1987 13.5697 24.416C13.1772 22.7087 12.7063 20.9443 12.4727 19.209H12.4121C12.232 20.604 11.8533 22.0145 11.5433 23.3867C11.3478 24.2522 11.2027 25.1307 10.9814 25.9902C10.5069 27.8329 8.1946 28.4036 6.90797 27.0193C6.26551 26.328 5.96123 25.2563 5.55466 24.416C4.53835 22.3156 3.60607 20.0846 2.34269 18.1191C1.72149 17.1528 1.16581 16.1596 0.73866 15.0918C0.578504 14.6914 0.279115 14.1574 0.630838 13.7736C0.911733 13.4671 1.36789 13.5682 1.59225 13.8835C2.10591 14.6054 2.326 15.6397 2.77609 16.4238C4.35322 19.1714 5.84397 21.9405 7.13612 24.8398C7.50684 25.6716 8.24182 27.2171 9.37356 26.2967C9.85594 25.9043 9.88234 25.1044 10.003 24.5371L10.9462 20.1172C11.1306 19.2503 11.2313 18.0714 12.3516 17.9695C13.206 17.8918 13.621 18.6156 13.7835 19.3301C14.1908 21.1204 14.5355 22.9254 14.9294 24.7188C15.1178 25.5768 15.4652 27.0353 16.7109 26.4399C17.0638 26.2713 17.6219 25.5679 17.4589 25.1426C17.3414 24.8359 17.0188 24.5592 16.8251 24.2949C16.4961 23.846 16.2344 23.3471 16.0031 22.8418C15.055 20.7712 15.1698 18.204 16.181 16.1816C17.0923 14.3592 18.7136 12.9047 20.6465 12.2463C21.3056 12.0218 22.005 11.8403 22.7051 11.8232C22.9272 11.8177 23.4469 11.9216 23.6024 11.7252C23.7726 11.5103 23.638 11.097 23.6185 10.8535C23.5473 9.96862 23.2522 9.15275 22.8394 8.37109C21.5577 5.94372 18.7887 4.85213 16.2266 5.83205C15.1534 6.24248 14.2414 7.20096 13.1387 7.46289V7.52344C13.6296 7.68044 14.1363 7.7698 14.6523 7.67692C15.013 7.61202 15.4329 7.32624 15.8025 7.43371C16.2407 7.5611 16.3825 8.08707 16.0816 8.41874C15.7656 8.76701 15.1039 8.92104 14.6523 8.96621C13.587 9.07283 12.4922 8.77712 11.6855 8.05782C11.2993 7.71343 11.0448 7.23663 10.6506 6.91191C9.98896 6.36691 9.10934 5.96092 8.29492 5.70858C6.4681 5.14251 4.52288 5.57173 3.14849 6.91888C2.49973 7.55474 2.21361 8.3186 1.69737 9.03075C1.53595 9.25344 1.24144 9.39676 0.969029 9.29468C0.131638 8.98074 0.838205 7.92426 1.11708 7.46289C1.94193 6.09835 3.2594 4.9745 4.7832 4.48068C6.55057 3.90793 8.36019 4.24041 9.99023 5.05596C10.7302 5.42621 11.5599 6.2806 12.4121 6.30465C13.0808 6.32353 13.6283 5.77374 14.168 5.45643C15.0922 4.9131 16.0742 4.47123 17.1348 4.2796C21.5893 3.47473 25.2189 7.77047 24.8848 12.0039C27.8689 12.6198 30.8736 15.5364 30.9395 18.7246H31V0.5H0Z" fill="#05204A"/>
<path d="M13.1387 7.52343V7.46289C14.2203 7.30074 15.2018 6.26935 16.2266 5.85554C18.8557 4.79388 21.6408 6.07249 22.9015 8.55273C23.2818 9.30091 23.551 10.074 23.6185 10.9141C23.6374 11.1486 23.7458 11.4669 23.6025 11.6819C23.4441 11.9195 22.9492 11.8196 22.7051 11.8225C21.9845 11.831 21.2642 12.0152 20.586 12.2463C18.7236 12.8807 17.1441 14.2517 16.2422 16C15.1711 18.0763 15.0218 20.7593 16.0031 22.9023C16.2345 23.4077 16.4961 23.9066 16.8251 24.3555C17.0124 24.611 17.3395 24.8879 17.4483 25.1859C17.5994 25.6 16.9784 26.2834 16.6504 26.4399C15.4462 27.0148 15.1053 25.4592 14.9294 24.6582C14.5444 22.9055 14.214 21.1394 13.8119 19.3906C13.6363 18.6267 13.2841 17.8759 12.3516 17.9574C11.2194 18.0563 11.1346 19.1709 10.9462 20.0566C10.6287 21.5503 10.3 23.0418 9.99046 24.5371C9.86319 25.1518 9.82419 25.9503 9.26129 26.3384C8.12289 27.1234 7.46305 25.5285 7.1097 24.7187C5.85039 21.8327 4.33997 19.0877 2.77613 16.3633C2.33317 15.5915 2.11461 14.5225 1.59229 13.8269C1.38521 13.5511 0.890618 13.4742 0.630878 13.7255C0.262598 14.0817 0.535295 14.6435 0.690256 15.0312C1.11709 16.0994 1.6563 17.0848 2.26597 18.0586C3.51514 20.054 4.44937 22.2497 5.49481 24.3555C5.9274 25.2268 6.23328 26.3634 6.90801 27.0792C8.24731 28.5 10.5676 27.7489 11.0117 25.9297C11.2271 25.0474 11.3855 24.1514 11.5857 23.2656C11.8822 21.953 12.3054 20.55 12.4121 19.209H12.4727C12.6163 20.9668 13.1947 22.8154 13.5837 24.5371C13.7619 25.326 13.8083 26.2297 14.3067 26.8975C15.456 28.4377 18.0009 27.9388 18.5274 26.1113C20.338 27.1193 21.9842 27.7588 24.0977 27.5542C24.9941 27.4674 25.8975 27.1938 26.7012 26.7919C31.9452 24.1699 32.5086 16.441 27.6094 13.1544C26.8058 12.6152 25.8548 12.1345 24.8848 12.0039C25.4323 7.67153 21.4536 3.48832 17.0743 4.2796C16.0137 4.47122 15.0316 4.9131 14.1075 5.45643C13.5983 5.75578 13.044 6.31866 12.4121 6.29652C11.5469 6.26619 10.5749 5.31535 9.80863 4.93491C8.25875 4.16544 6.44574 3.95263 4.78324 4.46189C3.23557 4.93598 1.89746 6.07568 1.08147 7.46289C0.825736 7.89767 0.125598 8.98485 0.909363 9.29491C1.15345 9.39142 1.47812 9.32646 1.65677 9.13434C2.22412 8.52415 2.47356 7.65809 3.08817 7.03912C4.44922 5.6683 6.31308 5.13554 8.17387 5.69012C9.01753 5.94154 9.90224 6.3617 10.5933 6.91191C10.9941 7.23105 11.2392 7.71337 11.625 8.05782C12.4728 8.81472 13.6575 9.10443 14.7735 8.95906C15.1845 8.90548 15.7812 8.77379 16.0817 8.46857C16.3869 8.15845 16.3037 7.56945 15.8624 7.43346C15.4394 7.3031 15 7.60348 14.5918 7.67692C14.0825 7.76865 13.6284 7.63569 13.1387 7.52343ZM0.424102 10.8327C-0.327042 11.0612 0.00632888 12.2505 0.786913 12.0382C1.54042 11.8332 1.20421 10.5954 0.424102 10.8327Z" fill="white"/>
<path d="M22.4023 13.1196C21.3734 13.267 20.4294 13.6087 19.5566 14.1754C18.8551 14.6308 18.2476 15.2469 17.7808 15.9394C14.6733 20.5496 18.4756 27.0746 24.0976 26.267C25.0421 26.1313 25.9602 25.7911 26.7617 25.2718C31.5166 22.1908 30.2377 14.5637 24.7031 13.2544C23.9717 13.0814 23.1499 13.0126 22.4023 13.1196Z" fill="#05204A"/>
<path d="M21.0704 17.5742C20.4899 17.5742 19.8361 17.5275 19.3777 17.9489C18.6883 18.5828 18.673 20.8531 19.3862 21.4777C19.8611 21.8936 20.4863 21.8125 21.0704 21.8125C21.0704 22.3992 21.0166 23.0968 21.4466 23.5627C22.1026 24.2735 24.3673 24.2597 24.9821 23.5054C25.3618 23.0395 25.3086 22.3748 25.3086 21.8125C25.8927 21.8125 26.5179 21.8936 26.9928 21.4777C27.706 20.8531 27.6907 18.5828 27.0014 17.9489C26.543 17.5275 25.8891 17.5742 25.3086 17.5742C25.3086 16.9783 25.3515 16.2996 24.917 15.8296C24.2801 15.1405 22.0989 15.1405 21.462 15.8296C21.0275 16.2996 21.0704 16.9783 21.0704 17.5742Z" fill="white"/>
<path d="M20.2227 20.541C20.7567 20.541 21.8136 20.3357 22.1945 20.7912C22.5688 21.239 22.0203 22.327 22.4389 22.6585C22.6169 22.7995 23.0363 22.7207 23.25 22.7207C23.4259 22.7207 23.6175 22.7413 23.7914 22.7117C24.3214 22.6215 23.8869 21.2299 24.1426 20.8471C24.4933 20.3223 25.6096 20.541 26.1563 20.541C26.1563 20.2126 26.3294 19.1219 26.0592 18.9079C25.6138 18.5551 24.7669 19.0917 24.2859 18.6983C23.9017 18.3841 24.0379 17.7121 24.0372 17.2715C24.0369 17.0963 24.0797 16.7989 23.8898 16.7025C23.732 16.6225 23.4819 16.666 23.3106 16.666C23.088 16.666 22.6308 16.5798 22.4473 16.7283C22.0208 17.0734 22.5679 18.1404 22.1945 18.5969C21.7182 19.1794 20.8161 18.5148 20.3198 18.9079C20.0496 19.1219 20.2227 20.2126 20.2227 20.541Z" fill="#05204A"/>
</g>
<defs>
<clipPath id="clip0_487_1486">
<rect width="31" height="31" fill="white" transform="translate(0 0.5)"/>
</clipPath>
</defs>
</svg>
