<svg width="400" height="135" viewBox="0 0 400 135" fill="none" xmlns="http://www.w3.org/2000/svg">
<path d="M158.895 57.2935H159.233C159.549 57.2935 159.842 57.1582 160.112 56.8877C160.383 56.6171 160.62 56.3015 160.822 55.9408C161.025 55.5801 161.172 55.1856 161.262 54.7573C161.352 54.329 161.397 53.9345 161.397 53.5738V17.5268C161.397 17.2112 161.352 16.8505 161.262 16.4447C161.172 16.0389 161.037 15.6557 160.856 15.295C160.676 14.9343 160.451 14.6299 160.18 14.382C159.909 14.134 159.594 14.01 159.233 14.01H158.895V13.3337H171.948C175.51 13.3337 178.711 13.9536 181.551 15.1935C184.392 16.4334 186.793 18.1016 188.754 20.1982C190.715 22.2947 192.214 24.6956 193.251 27.4008C194.288 30.106 194.807 32.924 194.807 35.8546C194.807 38.6049 194.311 41.2989 193.319 43.9364C192.327 46.574 190.839 48.9298 188.855 51.0038C186.871 53.0778 184.392 54.7573 181.416 56.0423C178.44 57.3273 174.991 57.9698 171.068 57.9698H158.895L158.895 57.2935ZM190.208 36.8691C190.208 33.9835 189.689 31.2557 188.652 28.6858C187.615 26.1158 186.161 23.8728 184.29 21.9566C182.419 20.0404 180.21 18.5187 177.662 17.3915C175.115 16.2643 172.353 15.7007 169.378 15.7007H165.929V55.6027H169.513C171.948 55.6027 174.394 55.2307 176.851 54.4868C179.308 53.7429 181.529 52.5931 183.512 51.0376C185.496 49.4821 187.108 47.5321 188.348 45.1876C189.588 42.8431 190.208 40.0702 190.208 36.8691Z" fill="#59CBE8"/>
<path d="M207.668 57.2935H208.006C208.367 57.2935 208.682 57.1695 208.953 56.9215C209.223 56.6735 209.46 56.3692 209.663 56.0085C209.866 55.6478 210.024 55.2646 210.136 54.8588C210.249 54.453 210.305 54.0697 210.305 53.709V17.5268C210.305 17.2112 210.249 16.8505 210.136 16.4447C210.024 16.0389 209.866 15.6557 209.663 15.295C209.46 14.9343 209.223 14.6299 208.953 14.382C208.682 14.134 208.367 14.01 208.006 14.01H207.668V13.3337H233.706V19.6233H233.029C232.939 18.5863 232.533 17.6733 231.812 16.8843C231.091 16.0953 229.963 15.7008 228.43 15.7008H214.837V32.8112H226.063C227.1 32.8112 227.968 32.4956 228.667 31.8644C229.366 31.2332 229.715 30.4893 229.715 29.6326H230.392V38.0864H229.715C229.715 37.2749 229.377 36.576 228.701 35.9899C228.025 35.4038 227.145 35.1107 226.063 35.1107H214.837V55.6027H229.648C230.504 55.6027 231.248 55.3998 231.88 54.994C232.511 54.5882 233.041 54.1035 233.469 53.54C233.897 52.9764 234.213 52.3677 234.416 51.7139C234.619 51.0602 234.72 50.5079 234.72 50.057H235.396V57.9698H207.668V57.2935Z" fill="#59CBE8"/>
<path d="M254.615 57.2935H254.953V57.9698H247.446V57.2935H247.784C248.1 57.2935 248.404 57.1582 248.697 56.8877C248.99 56.6171 249.227 56.3015 249.407 55.9408C249.587 55.5801 249.734 55.1856 249.847 54.7573C249.959 54.329 250.016 53.9345 250.016 53.5738V17.5268C250.016 17.2112 249.982 16.8505 249.914 16.4447C249.847 16.0389 249.723 15.6557 249.542 15.295C249.362 14.9343 249.114 14.6299 248.798 14.382C248.483 14.134 248.1 14.01 247.649 14.01H247.311V13.3337H254.141L278.691 52.0183V17.5268C278.691 17.2112 278.635 16.8505 278.522 16.4447C278.409 16.0389 278.251 15.6557 278.049 15.295C277.846 14.9343 277.609 14.6299 277.338 14.382C277.068 14.134 276.752 14.01 276.392 14.01H276.053V13.3337H283.628V14.01H283.29C282.929 14.01 282.614 14.134 282.343 14.382C282.073 14.6299 281.836 14.9343 281.633 15.295C281.43 15.6557 281.284 16.0389 281.193 16.4447C281.103 16.8505 281.058 17.2112 281.058 17.5268V57.9698H276.865L252.383 19.1499V53.5738C252.383 53.9345 252.428 54.329 252.518 54.7573C252.608 55.1856 252.755 55.5802 252.958 55.9408C253.161 56.3015 253.397 56.6171 253.668 56.8877C253.938 57.1582 254.254 57.2935 254.615 57.2935Z" fill="#59CBE8"/>
<path d="M314.141 57.2935H314.479V57.9698H304.875V57.2935H305.213C305.574 57.2935 305.89 57.1582 306.16 56.8877C306.431 56.6172 306.667 56.3016 306.87 55.9409C307.073 55.5802 307.22 55.1857 307.31 54.7574C307.4 54.329 307.445 53.9345 307.445 53.5738V15.8361H299.6C298.879 15.8361 298.247 15.9939 297.706 16.3095C297.165 16.6251 296.714 17.0196 296.354 17.493C295.993 17.9664 295.723 18.4849 295.542 19.0485C295.362 19.6121 295.272 20.1644 295.272 20.7054H294.595V13.3337H324.961V20.7054H324.285C324.285 20.1644 324.195 19.6121 324.015 19.0485C323.834 18.4849 323.564 17.9664 323.203 17.493C322.842 17.0196 322.392 16.6251 321.85 16.3095C321.309 15.9939 320.678 15.8361 319.957 15.8361H311.976V53.5738C311.976 53.9345 312.022 54.329 312.112 54.7574C312.202 55.1857 312.348 55.5802 312.551 55.9409C312.754 56.3016 312.98 56.6172 313.228 56.8877C313.476 57.1582 313.78 57.2935 314.141 57.2935Z" fill="#59CBE8"/>
<path d="M332.885 13.3337H342.219V14.01C341.903 14.0551 341.61 14.1903 341.339 14.4158C341.069 14.6412 340.934 14.9794 340.934 15.4302C340.934 15.6557 341.001 15.9036 341.136 16.1741L351.281 33.961L361.02 17.121C361.2 16.7603 361.324 16.4898 361.392 16.3094C361.459 16.1291 361.493 15.9036 361.493 15.6331C361.403 14.9117 361.144 14.4609 360.715 14.2805C360.287 14.1002 360.028 14.01 359.938 14.01V13.3337H367.174V14.01C366.498 14.01 365.81 14.427 365.111 15.2612C364.413 16.0953 363.815 16.9406 363.319 17.7973L352.769 36.0575V53.5738C352.769 53.9345 352.825 54.3177 352.938 54.7235C353.051 55.1293 353.197 55.5238 353.378 55.907C353.558 56.2903 353.783 56.6171 354.054 56.8877C354.324 57.1582 354.64 57.2935 355.001 57.2935H355.339V57.9698H345.668V57.2935H346.006C346.366 57.2935 346.682 57.1695 346.953 56.9215C347.223 56.6735 347.46 56.3579 347.663 55.9747C347.866 55.5914 348.012 55.1856 348.102 54.7573C348.193 54.329 348.238 53.9345 348.238 53.5738V36.6662L337.349 18.0002C337.124 17.6395 336.853 17.2337 336.538 16.7828C336.222 16.332 335.884 15.9036 335.523 15.4978C335.162 15.0921 334.779 14.7426 334.373 14.4496C333.968 14.1565 333.584 14.01 333.224 14.01H332.885V13.3337Z" fill="#59CBE8"/>
<path d="M186.894 108.73C186.894 110.985 186.443 112.912 185.541 114.513C184.64 116.113 183.479 117.409 182.058 118.401C180.638 119.393 179.038 120.115 177.257 120.566C175.476 121.016 173.706 121.242 171.948 121.242C170.144 121.242 168.589 121.062 167.281 120.701C165.974 120.34 164.779 120.002 163.697 119.686C162.975 119.461 162.322 119.269 161.735 119.111C161.149 118.954 160.563 118.875 159.977 118.875V111.165H160.653C160.653 112.878 161.093 114.242 161.972 115.257C162.851 116.271 163.877 117.049 165.049 117.59C166.222 118.131 167.394 118.48 168.566 118.638C169.738 118.796 170.595 118.875 171.136 118.875C173.075 118.875 174.743 118.593 176.141 118.029C177.538 117.466 178.688 116.722 179.59 115.798C180.492 114.873 181.157 113.848 181.585 112.72C182.013 111.593 182.227 110.444 182.227 109.271C182.227 107.783 181.912 106.532 181.281 105.518C180.649 104.503 179.827 103.613 178.812 102.846C177.798 102.08 176.637 101.426 175.329 100.885C174.022 100.344 172.692 99.803 171.339 99.262C169.806 98.6758 168.296 98.0672 166.808 97.436C165.32 96.8047 163.99 96.027 162.818 95.1027C161.645 94.1784 160.698 93.0738 159.977 91.7888C159.256 90.5038 158.895 88.9145 158.895 87.0209C158.895 85.037 159.278 83.3125 160.045 81.8471C160.811 80.3818 161.837 79.1757 163.122 78.2289C164.407 77.2821 165.872 76.572 167.518 76.0985C169.164 75.6251 170.843 75.3884 172.556 75.3884C173.729 75.3884 174.833 75.4673 175.87 75.6251C176.907 75.7829 177.899 75.9746 178.846 76.2C179.612 76.3803 180.356 76.5269 181.078 76.6396C181.799 76.7523 182.498 76.8087 183.174 76.8087V83.7746H182.498C182.408 81.4301 181.484 79.8408 179.725 79.0067C177.967 78.1726 175.532 77.7555 172.421 77.7555C170.618 77.7555 169.141 78.0598 167.991 78.6685C166.842 79.2772 165.929 80.0211 165.252 80.9003C164.576 81.7795 164.114 82.7263 163.866 83.7408C163.618 84.7553 163.494 85.6457 163.494 86.4122C163.494 87.6746 163.776 88.7567 164.339 89.6585C164.903 90.5602 165.658 91.3492 166.605 92.0255C167.552 92.7018 168.645 93.3105 169.885 93.8515C171.125 94.3926 172.421 94.9111 173.774 95.407C175.307 95.9932 176.862 96.6244 178.44 97.3007C180.018 97.977 181.427 98.8111 182.667 99.803C183.907 100.795 184.921 102.012 185.71 103.455C186.499 104.898 186.894 106.656 186.894 108.73Z" fill="#59CBE8"/>
<path d="M194.209 76.0647H203.542V76.741C203.227 76.7861 202.934 76.9213 202.663 77.1468C202.393 77.3722 202.257 77.7104 202.257 78.1612C202.257 78.3867 202.325 78.6346 202.46 78.9052L212.605 96.692L222.344 79.852C222.524 79.4913 222.648 79.2208 222.716 79.0404C222.783 78.8601 222.817 78.6347 222.817 78.3641C222.727 77.6427 222.468 77.1919 222.039 77.0115C221.611 76.8312 221.352 76.741 221.261 76.741V76.0647H228.498V76.741C227.822 76.741 227.134 77.1581 226.435 77.9922C225.736 78.8263 225.139 79.6717 224.643 80.5283L214.093 98.7885V116.305C214.093 116.666 214.149 117.049 214.262 117.455C214.374 117.86 214.521 118.255 214.701 118.638C214.882 119.021 215.107 119.348 215.378 119.619C215.648 119.889 215.964 120.024 216.324 120.024H216.663V120.701H206.991V120.024H207.33C207.69 120.024 208.006 119.9 208.276 119.652C208.547 119.405 208.784 119.089 208.987 118.706C209.189 118.322 209.336 117.917 209.426 117.488C209.516 117.06 209.561 116.665 209.561 116.305V99.3972L198.673 80.7312C198.447 80.3705 198.177 79.9647 197.861 79.5139C197.546 79.063 197.208 78.6346 196.847 78.2289C196.486 77.8231 196.103 77.4737 195.697 77.1806C195.291 76.8875 194.908 76.741 194.547 76.741H194.209V76.0647Z" fill="#59CBE8"/>
<path d="M264.218 108.73C264.218 110.985 263.767 112.912 262.865 114.513C261.964 116.113 260.803 117.409 259.382 118.401C257.962 119.393 256.362 120.115 254.581 120.566C252.8 121.016 251.03 121.242 249.272 121.242C247.468 121.242 245.913 121.062 244.605 120.701C243.298 120.34 242.103 120.002 241.021 119.686C240.299 119.461 239.646 119.269 239.06 119.111C238.473 118.954 237.887 118.875 237.301 118.875V111.165H237.977C237.977 112.878 238.417 114.242 239.296 115.257C240.175 116.271 241.201 117.049 242.373 117.59C243.546 118.131 244.718 118.48 245.89 118.638C247.062 118.796 247.919 118.875 248.46 118.875C250.399 118.875 252.067 118.593 253.465 118.029C254.863 117.466 256.012 116.722 256.914 115.798C257.816 114.873 258.481 113.848 258.909 112.72C259.337 111.593 259.552 110.444 259.552 109.271C259.552 107.783 259.236 106.532 258.605 105.518C257.973 104.503 257.151 103.613 256.136 102.846C255.122 102.08 253.961 101.426 252.653 100.885C251.346 100.344 250.016 99.803 248.663 99.262C247.13 98.6758 245.62 98.0672 244.132 97.436C242.644 96.8047 241.314 96.027 240.142 95.1027C238.969 94.1784 238.023 93.0738 237.301 91.7888C236.58 90.5038 236.219 88.9145 236.219 87.0209C236.219 85.037 236.602 83.3125 237.369 81.8471C238.135 80.3818 239.161 79.1757 240.446 78.2289C241.731 77.2821 243.196 76.572 244.842 76.0985C246.488 75.6251 248.167 75.3884 249.88 75.3884C251.053 75.3884 252.157 75.4673 253.194 75.6251C254.231 75.7829 255.223 75.9746 256.17 76.2C256.936 76.3803 257.68 76.5269 258.402 76.6396C259.123 76.7523 259.822 76.8087 260.498 76.8087V83.7746H259.822C259.732 81.4301 258.808 79.8408 257.049 79.0067C255.291 78.1726 252.856 77.7555 249.745 77.7555C247.942 77.7555 246.465 78.0598 245.315 78.6685C244.166 79.2772 243.253 80.0211 242.576 80.9003C241.9 81.7795 241.438 82.7263 241.19 83.7408C240.942 84.7553 240.818 85.6457 240.818 86.4122C240.818 87.6746 241.1 88.7567 241.663 89.6585C242.227 90.5602 242.982 91.3492 243.929 92.0255C244.876 92.7018 245.969 93.3105 247.209 93.8515C248.449 94.3926 249.745 94.9111 251.098 95.407C252.631 95.9932 254.186 96.6244 255.764 97.3007C257.342 97.977 258.751 98.8111 259.991 99.803C261.231 100.795 262.245 102.012 263.035 103.455C263.824 104.898 264.218 106.656 264.218 108.73Z" fill="#59CBE8"/>
<path d="M291.62 120.024H291.958V120.701H282.354V120.024H282.692C283.053 120.024 283.369 119.889 283.639 119.619C283.91 119.348 284.147 119.033 284.349 118.672C284.552 118.311 284.699 117.917 284.789 117.488C284.879 117.06 284.924 116.665 284.924 116.305V78.567H277.079C276.358 78.567 275.727 78.7248 275.186 79.0404C274.644 79.356 274.194 79.7505 273.833 80.224C273.472 80.6974 273.202 81.2159 273.021 81.7795C272.841 82.3431 272.751 82.8954 272.751 83.4364H272.075V76.0647H302.441V83.4364H301.764C301.764 82.8954 301.674 82.3431 301.494 81.7795C301.313 81.2159 301.043 80.6974 300.682 80.224C300.321 79.7505 299.871 79.356 299.33 79.0404C298.789 78.7248 298.157 78.567 297.436 78.567H289.456V116.305C289.456 116.665 289.501 117.06 289.591 117.488C289.681 117.917 289.828 118.311 290.03 118.672C290.233 119.033 290.459 119.348 290.707 119.619C290.955 119.889 291.259 120.024 291.62 120.024Z" fill="#59CBE8"/>
<path d="M313.205 120.024H313.543C313.904 120.024 314.219 119.9 314.49 119.653C314.761 119.405 314.997 119.1 315.2 118.739C315.403 118.379 315.561 117.996 315.674 117.59C315.786 117.184 315.843 116.801 315.843 116.44V80.2578C315.843 79.9422 315.786 79.5815 315.674 79.1757C315.561 78.7699 315.403 78.3867 315.2 78.026C314.997 77.6653 314.761 77.3609 314.49 77.113C314.219 76.865 313.904 76.741 313.543 76.741H313.205V76.0647H339.243V82.3543H338.566C338.476 81.3173 338.07 80.4043 337.349 79.6153C336.628 78.8263 335.501 78.4318 333.968 78.4318H320.374V95.5423H331.6C332.637 95.5423 333.505 95.2266 334.204 94.5954C334.903 93.9642 335.253 93.2203 335.253 92.3636H335.929V100.817H335.253C335.253 100.006 334.914 99.307 334.238 98.7209C333.562 98.1347 332.683 97.8417 331.6 97.8417H320.374V118.334H335.185C336.042 118.334 336.786 118.131 337.417 117.725C338.048 117.319 338.578 116.835 339.006 116.271C339.434 115.707 339.75 115.099 339.953 114.445C340.156 113.791 340.257 113.239 340.257 112.788H340.933V120.701H313.205V120.024Z" fill="#59CBE8"/>
<path d="M389.436 120.024H389.774C390.09 120.024 390.383 119.889 390.653 119.619C390.924 119.348 391.16 119.033 391.363 118.672C391.566 118.311 391.713 117.917 391.803 117.488C391.893 117.06 391.938 116.665 391.938 116.305V80.7312L374.49 121.445L357.92 82.8277V116.305C357.92 116.665 357.965 117.06 358.055 117.488C358.146 117.917 358.292 118.311 358.495 118.672C358.698 119.033 358.935 119.348 359.205 119.619C359.476 119.889 359.791 120.024 360.152 120.024H360.49V120.701H353.118V120.024H353.456C353.772 120.024 354.065 119.889 354.336 119.619C354.606 119.348 354.832 119.033 355.012 118.672C355.192 118.311 355.328 117.917 355.418 117.488C355.508 117.06 355.553 116.665 355.553 116.305V80.2578C355.553 79.9422 355.508 79.5815 355.418 79.1757C355.328 78.7699 355.192 78.3867 355.012 78.026C354.832 77.6653 354.606 77.3609 354.336 77.113C354.065 76.865 353.772 76.741 353.456 76.741H353.118V76.0647H360.017L375.707 113.059L391.397 76.0647H399.039V76.741H398.701C398.341 76.741 398.025 76.865 397.754 77.113C397.484 77.3609 397.247 77.6653 397.044 78.026C396.841 78.3867 396.695 78.7699 396.605 79.1757C396.515 79.5815 396.469 79.9422 396.469 80.2578V116.305C396.469 116.665 396.515 117.06 396.605 117.488C396.695 117.917 396.841 118.311 397.044 118.672C397.247 119.033 397.484 119.348 397.754 119.619C398.025 119.889 398.341 120.024 398.701 120.024H399.039V120.701H389.436L389.436 120.024Z" fill="#59CBE8"/>
<path fill-rule="evenodd" clip-rule="evenodd" d="M0 0H32.3468V20.6021H0V0Z" fill="#59CBE8"/>
<path fill-rule="evenodd" clip-rule="evenodd" d="M37.7378 0C73.936 0 103.78 28.6881 105.127 64.6933H83.563C82.215 40.2412 62.5759 20.6021 37.7378 20.6021V0Z" fill="#59CBE8"/>
<path fill-rule="evenodd" clip-rule="evenodd" d="M11.745 48.7132C18.099 48.7132 23.2975 43.3212 23.2975 36.9682C23.2975 30.4212 18.099 25.2231 11.745 25.2231C5.19862 25.2231 0 30.4212 0 36.9682C0 43.3212 5.19862 48.7132 11.745 48.7132Z" fill="#59CBE8"/>
<path fill-rule="evenodd" clip-rule="evenodd" d="M0 49.6752L33.6949 134.779H0V49.6752Z" fill="#59CBE8"/>
<path fill-rule="evenodd" clip-rule="evenodd" d="M83.563 70.0853C82.215 94.5374 62.7689 113.984 37.9308 113.984V134.587C74.1279 134.587 103.78 105.897 105.127 70.0853H83.563Z" fill="#59CBE8"/>
<path d="M126.634 134.778V0H128.817V134.778H126.634Z" fill="#59CBE8"/>
</svg>
