<svg width="85" height="85" viewBox="0 0 85 85" fill="none" xmlns="http://www.w3.org/2000/svg">
<g clip-path="url(#clip0_486_1459)">
<path d="M58.4375 31.875C58.4375 36.1019 56.7584 40.1557 53.7695 43.1445C50.7807 46.1334 46.7269 47.8125 42.5 47.8125C38.2731 47.8125 34.2193 46.1334 31.2305 43.1445C28.2416 40.1557 26.5625 36.1019 26.5625 31.875C26.5625 27.6481 28.2416 23.5943 31.2305 20.6055C34.2193 17.6166 38.2731 15.9375 42.5 15.9375C46.7269 15.9375 50.7807 17.6166 53.7695 20.6055C56.7584 23.5943 58.4375 27.6481 58.4375 31.875Z" fill="white"/>
<path fill-rule="evenodd" clip-rule="evenodd" d="M0 42.5C0 31.2283 4.47767 20.4183 12.448 12.448C20.4183 4.47767 31.2283 0 42.5 0C53.7717 0 64.5817 4.47767 72.552 12.448C80.5223 20.4183 85 31.2283 85 42.5C85 53.7717 80.5223 64.5817 72.552 72.552C64.5817 80.5223 53.7717 85 42.5 85C31.2283 85 20.4183 80.5223 12.448 72.552C4.47767 64.5817 0 53.7717 0 42.5ZM42.5 5.3125C35.4969 5.31287 28.6363 7.29068 22.7078 11.0183C16.7792 14.7459 12.0237 20.0717 8.98856 26.3829C5.95343 32.6941 4.76205 39.734 5.55155 46.6924C6.34105 53.6508 9.07934 60.2449 13.4513 65.7156C17.2231 59.6381 25.5266 53.125 42.5 53.125C59.4734 53.125 67.7716 59.6328 71.5488 65.7156C75.9207 60.2449 78.6589 53.6508 79.4484 46.6924C80.2379 39.734 79.0466 32.6941 76.0114 26.3829C72.9763 20.0717 68.2208 14.7459 62.2922 11.0183C56.3637 7.29068 49.5031 5.31287 42.5 5.3125Z" fill="white"/>
</g>
<defs>
<clipPath id="clip0_486_1459">
<rect width="85" height="85" fill="white"/>
</clipPath>
</defs>
</svg>
