<svg width="31" height="31" viewBox="0 0 31 31" fill="none" xmlns="http://www.w3.org/2000/svg">
<g clip-path="url(#clip0_473_1937)">
<path d="M11.625 14.2083C14.4785 14.2083 16.7917 11.8951 16.7917 9.04167C16.7917 6.1882 14.4785 3.875 11.625 3.875C8.77157 3.875 6.45837 6.1882 6.45837 9.04167C6.45837 11.8951 8.77157 14.2083 11.625 14.2083Z" stroke="white" stroke-width="2" stroke-linecap="round" stroke-linejoin="round"/>
<path d="M3.875 27.125V24.5417C3.875 23.1714 4.41934 21.8572 5.38828 20.8883C6.35722 19.9193 7.67138 19.375 9.04167 19.375H14.2083C15.5786 19.375 16.8928 19.9193 17.8617 20.8883C18.8307 21.8572 19.375 23.1714 19.375 24.5417V27.125" stroke="white" stroke-width="2" stroke-linecap="round" stroke-linejoin="round"/>
<path d="M20.6666 4.04291C21.778 4.32746 22.763 4.97381 23.4665 5.88006C24.1699 6.7863 24.5518 7.9009 24.5518 9.04812C24.5518 10.1953 24.1699 11.3099 23.4665 12.2162C22.763 13.1224 21.778 13.7688 20.6666 14.0533" stroke="white" stroke-width="2" stroke-linecap="round" stroke-linejoin="round"/>
<path d="M27.125 27.125V24.5416C27.1184 23.4013 26.7348 22.2952 26.0339 21.3957C25.333 20.4961 24.3541 19.8538 23.25 19.5687" stroke="white" stroke-width="2" stroke-linecap="round" stroke-linejoin="round"/>
</g>
<defs>
<clipPath id="clip0_473_1937">
<rect width="31" height="31" fill="white"/>
</clipPath>
</defs>
</svg>
