<svg width="31" height="32" viewBox="0 0 31 32" fill="none" xmlns="http://www.w3.org/2000/svg">
<g clip-path="url(#clip0_473_1952)">
<path d="M15.4999 9.71082C14.674 9.71082 13.8562 9.87349 13.0932 10.1895C12.3302 10.5056 11.6369 10.9689 11.0529 11.5529C10.4689 12.1369 10.0056 12.8302 9.68955 13.5932C9.37349 14.3562 9.21082 15.174 9.21082 15.9999C9.21082 16.8258 9.37349 17.6437 9.68955 18.4067C10.0056 19.1697 10.4689 19.863 11.0529 20.447C11.6369 21.031 12.3302 21.4943 13.0932 21.8103C13.8562 22.1264 14.674 22.2891 15.4999 22.2891C17.1679 22.2891 18.7676 21.6265 19.947 20.447C21.1265 19.2676 21.7891 17.6679 21.7891 15.9999C21.7891 14.332 21.1265 12.7323 19.947 11.5529C18.7676 10.3734 17.1679 9.71082 15.4999 9.71082ZM11.1483 15.9999C11.1483 14.8458 11.6068 13.739 12.4229 12.9229C13.239 12.1068 14.3458 11.6483 15.4999 11.6483C16.6541 11.6483 17.7609 12.1068 18.577 12.9229C19.3931 13.739 19.8516 14.8458 19.8516 15.9999C19.8516 17.1541 19.3931 18.2609 18.577 19.077C17.7609 19.8931 16.6541 20.3516 15.4999 20.3516C14.3458 20.3516 13.239 19.8931 12.4229 19.077C11.6068 18.2609 11.1483 17.1541 11.1483 15.9999Z" fill="white"/>
<path d="M18.9796 3.10207C17.9586 -0.366055 13.0412 -0.366055 12.0201 3.10207L11.838 3.72013C11.7667 3.96223 11.6421 4.1853 11.4734 4.37299C11.3047 4.56068 11.0961 4.70824 10.8629 4.80485C10.6298 4.90145 10.378 4.94466 10.1259 4.9313C9.87392 4.91794 9.62808 4.84835 9.40645 4.72763L8.8407 4.41763C5.6632 2.68938 2.18926 6.16526 3.91945 9.34082L4.22751 9.90657C4.34823 10.1282 4.41782 10.374 4.43118 10.6261C4.44454 10.8781 4.40133 11.1299 4.30472 11.3631C4.20812 11.5962 4.06056 11.8048 3.87287 11.9735C3.68517 12.1422 3.46211 12.2668 3.22001 12.3381L2.60195 12.5203C-0.866177 13.5413 -0.866177 18.4587 2.60195 19.4798L3.22001 19.6619C3.46211 19.7332 3.68517 19.8578 3.87287 20.0265C4.06056 20.1952 4.20812 20.4038 4.30472 20.6369C4.40133 20.8701 4.44454 21.1219 4.43118 21.3739C4.41782 21.626 4.34823 21.8718 4.22751 22.0934L3.91751 22.6592C2.18926 25.8367 5.6632 29.3126 8.8407 27.5804L9.40645 27.2724C9.62808 27.1517 9.87392 27.0821 10.1259 27.0687C10.378 27.0554 10.6298 27.0986 10.8629 27.1952C11.0961 27.2918 11.3047 27.4393 11.4734 27.627C11.6421 27.8147 11.7667 28.0378 11.838 28.2799L12.0201 28.8979C13.0412 32.3661 17.9586 32.3661 18.9796 28.8979L19.1618 28.2799C19.2331 28.0378 19.3576 27.8147 19.5264 27.627C19.6951 27.4393 19.9037 27.2918 20.1368 27.1952C20.37 27.0986 20.6218 27.0554 20.8738 27.0687C21.1258 27.0821 21.3717 27.1517 21.5933 27.2724L22.1591 27.5824C25.3366 29.3126 28.8124 25.8348 27.0803 22.6592L26.7723 22.0934C26.6515 21.8718 26.582 21.626 26.5686 21.3739C26.5552 21.1219 26.5984 20.8701 26.695 20.6369C26.7917 20.4038 26.9392 20.1952 27.1269 20.0265C27.3146 19.8578 27.5377 19.7332 27.7798 19.6619L28.3978 19.4798C31.8659 18.4587 31.8659 13.5413 28.3978 12.5203L27.7798 12.3381C27.5377 12.2668 27.3146 12.1422 27.1269 11.9735C26.9392 11.8048 26.7917 11.5962 26.695 11.3631C26.5984 11.1299 26.5552 10.8781 26.5686 10.6261C26.582 10.374 26.6515 10.1282 26.7723 9.90657L27.0823 9.34082C28.8124 6.16332 25.3346 2.68938 22.1591 4.41957L21.5933 4.72763C21.3717 4.84835 21.1258 4.91794 20.8738 4.9313C20.6218 4.94466 20.37 4.90145 20.1368 4.80485C19.9037 4.70824 19.6951 4.56068 19.5264 4.37299C19.3576 4.1853 19.2331 3.96223 19.1618 3.72013L18.9796 3.10207ZM13.8782 3.65038C14.3548 2.03257 16.6449 2.03257 17.1216 3.65038L17.3037 4.26845C17.4568 4.78786 17.7242 5.26643 18.0863 5.66906C18.4484 6.0717 18.896 6.38819 19.3963 6.59534C19.8967 6.80249 20.437 6.89505 20.9777 6.86623C21.5185 6.8374 22.0459 6.68792 22.5214 6.42876L23.0852 6.11876C24.5654 5.3147 26.1852 6.93251 25.3792 8.41469L25.0711 8.98044C24.8124 9.45596 24.6632 9.98335 24.6347 10.524C24.6062 11.0646 24.699 11.6047 24.9063 12.1048C25.1137 12.6049 25.4303 13.0523 25.8329 13.4142C26.2356 13.776 26.7141 14.0432 27.2334 14.1962L27.8495 14.3783C29.4673 14.8549 29.4673 17.1451 27.8495 17.6217L27.2314 17.8038C26.712 17.9569 26.2335 18.2243 25.8308 18.5864C25.4282 18.9485 25.1117 19.3961 24.9046 19.8965C24.6974 20.3968 24.6048 20.9371 24.6337 21.4779C24.6625 22.0186 24.812 22.546 25.0711 23.0215L25.3811 23.5853C26.1852 25.0656 24.5674 26.6853 23.0852 25.8793L22.5214 25.5713C22.0458 25.3121 21.5182 25.1627 20.9774 25.134C20.4365 25.1053 19.8961 25.198 19.3958 25.4054C18.8954 25.6127 18.4478 25.9294 18.0858 26.3323C17.7238 26.7351 17.4566 27.2139 17.3037 27.7335L17.1216 28.3496C16.6449 29.9674 14.3548 29.9674 13.8782 28.3496L13.6961 27.7316C13.5429 27.2124 13.2755 26.7341 12.9136 26.3317C12.5516 25.9293 12.1042 25.6129 11.6041 25.4058C11.1041 25.1986 10.564 25.106 10.0235 25.1346C9.48297 25.1633 8.95571 25.3125 8.48032 25.5713L7.91457 25.8813C6.43432 26.6853 4.81457 25.0675 5.62057 23.5853L5.92864 23.0215C6.18817 22.546 6.33793 22.0184 6.36695 21.4774C6.39597 20.9364 6.30349 20.3958 6.09631 19.8952C5.88914 19.3947 5.57251 18.9468 5.16968 18.5846C4.76684 18.2224 4.28801 17.9549 3.76832 17.8019L3.15026 17.6198C1.53245 17.1431 1.53245 14.853 3.15026 14.3764L3.76832 14.1943C4.2872 14.041 4.76524 13.7737 5.16747 13.4119C5.5697 13.05 5.88594 12.6028 6.09304 12.103C6.30014 11.6032 6.39286 11.0634 6.36441 10.5231C6.33597 9.98284 6.18707 9.45576 5.92864 8.98044L5.61864 8.41469C4.81457 6.93444 6.43239 5.31469 7.91457 6.1207L8.48032 6.42876C8.95571 6.68756 9.48297 6.83674 10.0235 6.86538C10.564 6.89401 11.1041 6.80138 11.6041 6.59425C12.1042 6.38713 12.5516 6.07076 12.9136 5.66833C13.2755 5.2659 13.5429 4.78759 13.6961 4.26845L13.8782 3.65038Z" fill="white"/>
</g>
<defs>
<clipPath id="clip0_473_1952">
<rect width="31" height="31" fill="white" transform="translate(0 0.5)"/>
</clipPath>
</defs>
</svg>
